<svg xmlns="http://www.w3.org/2000/svg" id="Layer_1" height="512" viewBox="0 0 486.8027 363.3232" width="512"><g><path d="m288.2476 234.9806c-1.2581-1.6311-2.1477-3.5583-2.5542-5.6692-5.2739.9188-10.8262 1.4701-15.2201 1.1334l-.8153 6.0086c1.1873.1019 2.4092.1529 3.6538.1529 5.0796 0 10.477-.7671 14.9358-1.6257z" fill="#ffffff"/><path d="m153.3359 184.7472c-.3745 2.0644-1.0137 4.0234-1.8777 5.853 3.1329 1.1862 6.9685 1.6352 10.9229 1.6352.188 0 .3772-.0099.5657-.0118.1185-.4402.2354-.8796.3628-1.3236.3318-1.1571.8252-2.8701 1.5388-4.817-4.5723.203-8.7568-.1252-11.5125-1.3358z" fill="#ffffff"/><path d="m436.8723 70.8907 38.032 291.4921 11.8984-1.5527-45.0156-345.0176c-1.2139-9.3018-8.6123-15.8042-17.9932-15.8125-.0059 0-.0117 0-.0186 0-9.3711 0-16.7734 6.4868-18.0029 15.7798l-1.1309 8.5459-.7192 5.4352h-338.9573v-5.4352h17.9397l-1.1107-8.5132c-1.2139-9.3022-8.6133-15.8042-17.9942-15.8125-.0059 0-.0107 0-.0176 0-9.3711 0-16.7734 6.4873-18.0029 15.7798l-45.7793 345.9692 11.8965 1.5742 38.6952-292.4325h23.0829c-9.4081 85.0537-24.1641 206.0005-40.2256 290.4531l5.9651.9318c.9452-4.9705 1.8862-10.0733 2.8209-15.2809 5.5914-1.4144 16.2603-2.9914 21.5156 1.0592 3.4398 2.6509 8.8358 3.5204 14.4401 3.5204 6.4807-.0005 13.2214-1.1624 17.5366-2.0793-.7214 3.968-1.4458 7.8754-2.1732 11.7001l5.965.9318c1.22-6.4146 2.4316-13.0449 3.6356-19.8477 2.5555-.558 5.7721-1.0614 8.9836-1.1414l2.7719 21.2451 11.8984-1.5527-2.0986-16.085c3.3944 1.8393 8.0219 2.4848 12.8105 2.4848 7.3403-.0005 15.0313-1.493 19.1317-2.4286-.9919 5.5435-1.9906 10.9689-2.994 16.2452l5.9661.9317c.9175-4.8262 1.8313-9.7769 2.7399-14.8268 5.8197-1.3033 15.3368-2.3802 20.2054 1.3719 3.4397 2.651 8.8358 3.5205 14.4402 3.5205 7.1743-.0005 14.6741-1.4253 18.8389-2.363-.693 3.8011-1.3879 7.5473-2.0862 11.217l5.9659.9318c1.0712-5.6324 2.1362-11.4319 3.1942-17.3667 3.585-1.4238 13.3191-4.6439 18.9768-.2841 4.2537 3.2784 12.1434 4.2097 19.7378 4.2097 5.5796 0 10.9949-.5029 14.6968-.9471-.818 4.5248-1.641 8.9657-2.4666 13.3077l5.9651.9312c.6582-3.4577 1.313-6.9831 1.9663-10.5579 4.9429-1.4564 17.2059-3.7838 22.9722.66 3.4398 2.6509 8.8359 3.5204 14.4402 3.5204 5.7939-.0005 11.7935-.9297 16.0867-1.782-.4419 2.3837-.8832 4.7491-1.3262 7.079l5.965.9318c17.995-94.6151 34.3463-234.8505 43.4008-319.446h18.9542l-42.2985 319.6633 11.8965 1.5742 38.6952-292.4325zm-11.0539-42.8495c4.5906 0 8.312 3.7214 8.312 8.312s-3.7214 8.312-8.312 8.312-8.312-3.7214-8.312-8.312 3.7214-8.312 8.312-8.312zm-222.7467 14.0443h54.0037c-1.0494 9.8024-2.1952 20.3424-3.4316 31.479-9.4281 2.1525-23.6525 3.7427-28.5643-.044-7.1191-5.4862-19.0508-3.7957-25.1643-2.4227 1.1322-10.232 2.1859-19.9429 3.1565-29.0123zm18.1942 36.2904c3.4397 2.651 8.8357 3.5204 14.4401 3.5204 6.3304-.0005 12.9093-1.1096 17.234-2.0151-1.198 10.7081-2.4725 21.9113-3.8182 33.482-9.4243 2.1002-23.2773 3.5817-28.1122-.1452-7.2904-5.6182-19.6317-3.7107-25.5996-2.3245 1.3408-11.5707 2.6089-22.759 3.7987-33.4326 5.4086-1.4441 16.6199-3.2754 22.0572.915zm27.1185 41.3045c-1.1133 9.4987-2.2709 19.2183-3.4713 29.0955-9.3879 2.2706-24.506 4.1286-29.6006.2001-6.7246-5.1819-17.7437-3.9606-24.0981-2.6525 1.1943-9.8648 2.3474-19.5706 3.4526-29.0402 5.2086-1.4569 16.9359-3.522 22.5291.79 3.4397 2.6509 8.8357 3.5204 14.4401 3.5204 6.0913-.0004 12.4251-1.0285 16.7482-1.9133zm-105.4022-77.5949h54.0039c-.8972 8.3814-1.865 17.3063-2.9004 26.6819-9.4279 2.1446-23.5942 3.7166-28.4946-.0603-7.145-5.5074-19.142-3.7828-25.235-2.4074.9332-8.4855 1.8083-16.5704 2.6261-24.2142zm18.7954 31.477c3.4397 2.651 8.8358 3.5205 14.4402 3.5205 6.2988-.0005 12.8435-1.0983 17.1682-2.0018-1.1859 10.6755-2.4536 21.8796-3.7953 33.4775-9.4232 2.0952-23.2412 3.5659-28.0704-.1546-7.3086-5.6325-19.6923-3.7008-25.6433-2.3141 1.3367-11.5994 2.5979-22.7857 3.7766-33.4252 5.383-1.446 16.6677-3.3095 22.124.8977zm-59.5872 39.1866c-2.3335-1.7988-5.1892-2.8126-8.1838-3.3326l-4.4332-33.9781c4.7365-.3492 9.7557.0654 12.8744 2.4687 3.4398 2.6509 8.8359 3.5204 14.4402 3.5204 5.709-.0005 11.6176-.9031 15.8976-1.7444-1.1971 10.7101-2.4718 21.9192-3.8177 33.4984-9.3527 1.9389-22.1668 3.1221-26.7775-.4324zm26.0428 6.7267c-1.1138 9.5126-2.2728 19.248-3.4741 29.1434-8.0092 1.7988-19.2814 3.1508-25.478 1.2244l-4.4314-33.9647c1.3198.4031 2.5276.9547 3.5273 1.7255 3.4397 2.651 8.8359 3.5205 14.4402 3.5205 5.4916-.0005 11.1813-.8359 15.416-1.6491zm6.2537-1.3961c.0687-.0183.1545-.0405.2074-.0544l-.134-.576c.1945-1.6635.3867-3.3204.5786-4.969 5.1899-1.4579 16.9603-3.5427 22.5679.7791 3.4397 2.6509 8.8368 3.5204 14.4402 3.5204 6.0746-.0005 12.3894-1.0226 16.7114-1.9055-1.1047 9.4819-2.2554 19.2015-3.4496 29.092-9.3888 2.2686-24.4918 4.1227-29.5845.1962-6.7294-5.1863-17.7635-3.9582-24.1161-2.6485.9551-7.9375 1.8824-15.763 2.7787-23.4343zm2.4102-75.9942c-1.0426 9.7476-2.1825 20.2308-3.4116 31.3051-9.3861 1.9935-22.5394 3.2725-27.2241-.3389-4.7377-3.6514-11.6045-4.1204-17.4722-3.6235l-3.5674-27.3427zm-58.463 40.7244 3.4746 26.6307c-2.7283.3788-5.0837.9062-6.6572 1.3111 1.1132-9.6119 2.1731-18.9371 3.1826-27.9418zm-3.8283 33.5011.2299.8029c1.6941-.5359 4.5852-1.2502 7.8535-1.6904l3.8484 29.4957c-5.7632-.6284-11.7754.3768-15.4744 1.2245 1.2268-10.1435 2.4088-20.1131 3.5426-29.8327zm-4.3191 36.2254c3.9032-1.0771 11.2584-2.4453 17.0687-1.3489l4.8064 36.8395c-7.6316-5.6129-20.4764-3.3455-26.0542-1.9765 1.4407-11.2901 2.8358-22.4922 4.1791-33.5141zm87.5125 185.7905c-9.2238 2.4074-25.5634 4.6434-30.9053.5271-.9807-.7558-2.0602-1.3616-3.1958-1.8646l-4.5342-34.7523c3.4288-.053 6.9143.5569 9.4803 2.5347 2.4275 1.8711 6.0061 2.8792 10.0264 3.3375-2.3483-1.8231-4.0833-4.4067-4.8342-7.3838-.519-.2399-.986-.5063-1.3787-.809-3.9-3.0066-8.7766-3.8414-13.2736-3.7518l-3.4479 30.6122c-.793 7.042-6.7295 12.3525-13.8086 12.3525-.5205 0-1.0469-.0298-1.5664-.0879-.9242-.1041-1.8154-.3007-2.6697-.5728-.2688 1.5353-.5371 3.0812-.8071 4.5984-9.4055 2.239-24.2769 4.0209-29.3203.1314-6.7554-5.2066-17.8469-3.9498-24.1868-2.6342 1.8533-10.5427 3.6843-21.5008 5.4856-32.7612 5.7939-1.3279 15.5107-2.4949 20.4514 1.3131 3.4398 2.651 8.8359 3.5205 14.4402 3.5205 1.8706-.0001 3.7616-.0988 5.6111-.2586l.6946-6.1671c-6.9895.6891-13.8245.4454-16.9323-1.9501-6.4349-4.959-16.8058-4.053-23.2554-2.8194 1.3495-8.568 2.6818-17.2931 3.9943-26.1293 5.2954-1.4529 16.8048-3.4207 22.3345.8413 3.4397 2.651 8.8357 3.5205 14.4401 3.5205.8021-.0001 1.6083-.0197 2.4137-.0527l.6907-6.1333c-5.8009.3154-11.1023-.1635-13.731-2.1899-7.1326-5.4971-19.0964-3.7892-25.2002-2.4148 1.572-10.725 3.1144-21.5897 4.6211-32.5103 5.2983-1.4534 16.8008-3.4172 22.3285.8428 2.2288 1.7177 5.2845 2.6792 8.6804 3.1491-1.645-1.8282-2.5803-4.2529-2.5118-6.7972-.9186-.3206-1.7183-.7167-2.355-1.2073-7.1567-5.5154-19.1769-3.7784-25.261-2.4015 1.7034-12.4792 3.3601-25.0059 4.9626-37.4526 4.6844-1.4435 17.422-4.0012 23.3306.5529 1.2639.974 2.7954 1.7036 4.5007 2.2418l1.5837 12.1379c2.4955-4.6259 5.954-8.2198 10.8621-9.4963l-.1843-1.4128c2.3718-.0939 4.7269-.3215 6.9528-.6116-1.4772-1.7126-2.7081-3.6334-3.6466-5.7047-1.3865.1247-2.7607.212-4.0977.2503l-4.4564-34.1566c2.203.3984 4.5748.5755 6.9967.5755 6.1487-.0005 12.5415-1.0479 16.8657-1.9376-.1182.9664-.239 1.9409-.358 2.9099 1.9769-.5674 4.0598-.8705 6.204-.8981.3738-3.0479.7446-6.0857 1.1108-9.1061 5.6951-1.3823 15.9465-2.7804 21.0671 1.1669 3.4398 2.6509 8.8359 3.5204 14.4402 3.5204 6.8137-.0005 13.9213-1.2855 18.1877-2.2182-.8079 6.6364-1.6365 13.3458-2.4802 20.0959 2.2102.1004 4.2251.9241 5.8115 2.2529.8418-6.7185 1.6687-13.3981 2.4747-20.0075 5.697-1.3818 15.9355-2.775 21.0543 1.1699 3.4397 2.6509 8.8358 3.5204 14.4402 3.5204 6.8196-.0005 13.9341-1.2879 18.1985-2.2206-1.353 11.047-2.7576 22.264-4.2051 33.5571-9.4277 2.1678-23.756 3.7892-28.6899-.0148-5.8643-4.5197-14.9871-4.1661-21.442-3.1343-1.2161 1.8164-3.0206 3.2231-5.162 3.9028-1.3779 2.4043-3.9199 10.0127-5.041 18.6045-.3015 2.3035-1.4231 4.3615-3.0557 5.8768-.6152 4.6182-1.23 9.2378-1.8585 13.8503-6.9877 1.707-17.2513 3.199-24.1493 2.2112l-.6807 6.0452c1.822.2477 3.7361.3619 5.6816.3619 6.8621-.0005 14.0198-1.3032 18.2754-2.2379-1.5051 10.9269-3.0448 21.8026-4.6143 32.5389-3.1606.7751-7.0017 1.507-10.9014 1.9857l.4554 6.0578c3.7159-.4629 7.0814-1.1141 9.5032-1.6462-1.3617 9.1979-2.7468 18.2772-4.1488 27.1871-1.3152.2569-2.7197.5048-4.1799.7344-.7236 2.6286-2.2234 4.9528-4.26 6.6938 2.833-.3391 5.4016-.7474 7.4368-1.11-1.7417 10.8939-3.5115 21.5082-5.3021 31.7317zm76.8944-66.9294c3.7188-1.1199 13.8748-3.5758 19.6565.8809 3.3955 2.6169 8.939 3.48 14.7784 3.48 7.0785 0 14.5856-1.2687 19.2242-2.2207-1.3311 8.9721-2.6827 17.8301-4.0525 26.5251-10.2021 2.4731-25.6705 4.5174-30.6248.6985-6.9603-5.3637-17.4265-3.477-23.1636-1.8279 1.4142-9.0265 2.8094-18.2249 4.1818-27.5359zm-6.1267.1373c-9.3765 2.2844-24.6115 4.18-29.7341.2327-6.6466-5.1221-17.4927-3.9888-23.8792-2.6984 1.5757-10.7422 3.1217-21.6267 4.6331-32.5681 5.7087-1.3768 15.8953-2.7483 20.9966 1.1837 3.4397 2.651 8.8358 3.5204 14.4402 3.5204 6.8215-.0005 13.9381-1.2884 18.2026-2.2221-1.5205 10.9458-3.0742 21.8259-4.6592 32.5518zm5.54-38.9321c-9.3794 2.2824-24.5942 4.1701-29.7102.2267-6.6658-5.1375-17.5571-3.9814-23.9358-2.686 1.7085-12.5094 3.3702-25.0682 4.9788-37.5479 5.4353-1.4411 16.5763-3.2388 21.9895.9332 3.4397 2.651 8.8358 3.5205 14.4401 3.5205 6.3365-.0005 12.9213-1.1116 17.246-2.0176-1.6182 12.4995-3.2902 25.0656-5.0084 37.5711zm-17.0927 110.6082c-9.27 2.3798-25.344 4.5323-30.6311.457-6.3127-4.8642-16.4143-4.0851-22.8854-2.8896 1.8574-10.549 3.6918-21.5151 5.4984-32.7889 5.8591-1.1871 14.5527-1.9371 19.1365 1.5958 3.6821 2.8377 9.8748 3.7309 16.2122 3.7309 6.8414 0 13.8416-1.0394 18.0457-1.7988-1.7682 10.9048-3.5612 21.5067-5.3763 31.6936zm-25.0682-38.4811c-6.0155-4.6355-15.4705-4.1469-21.9468-3.0556 1.3555-8.6001 2.6949-17.3603 4.0135-26.2326 5.7058-1.3778 15.9022-2.7527 21.0065 1.1813 3.4397 2.6509 8.8369 3.5204 14.4402 3.5204 6.7959-.0005 13.8865-1.2791 18.1558-2.2113-1.3816 9.2339-2.7864 18.336-4.2085 27.2552-10.0676 2.0201-26.2966 3.5215-31.4607-.4574zm85.5018 36.4813c-10.6187 1.4159-26.6826 2.0063-31.7349-1.8877-6.5813-5.0722-15.8962-3.4177-21.5929-1.6486 1.8049-10.3485 3.5869-21.0858 5.3422-32.1032 4.5493-1.6787 14.8944-4.2003 20.3999.045 3.2195 2.481 8.3625 3.3229 13.8611 3.3229 7.036-.0005 14.6506-1.3784 19.5598-2.4637-1.9148 11.9673-3.8622 23.5919-5.8352 34.7353zm59.021 5.9115c-9.4185 2.073-23.0887 3.5007-27.8842-.1956-7.2932-5.6211-19.6447-3.7087-25.6085-2.3224 1.8759-10.5125 3.7306-21.4662 5.5571-32.7434 5.5011-1.4322 16.4492-3.1415 21.8008.9831 3.4398 2.651 8.8359 3.5205 14.4402 3.5205 6.3721-.0005 12.9957-1.124 17.3186-2.033-1.8485 11.3128-3.7256 22.2862-5.624 32.7908zm6.6616-39.1871c-9.421 2.2009-23.9978 3.8959-28.9828.0533-6.8988-5.3163-18.3191-3.8939-24.5829-2.5511 1.363-8.5596 2.7092-17.2872 4.0359-26.1357 6.011-1.5691 18.1965-3.5995 23.6202.58 3.8813 2.9914 9.9231 3.9044 15.8514 3.9044 5.3148 0 10.5347-.7336 14.0316-1.3611-1.3075 8.6415-2.6326 17.1616-3.9734 25.5102zm26.0302-193.4163c-9.4255 2.1055-23.3154 3.5975-28.1589-.1354-.2461-.1897-.5115-.3497-.7688-.5225-.5054 2.0641-1.6763 3.8928-3.2802 5.2229.0758.0546.1617.0982.2354.155 3.4398 2.6509 8.8368 3.5204 14.4401 3.5204 6.1133-.0005 12.47-1.0359 16.7942-1.9222-1.2153 10.3564-2.4854 20.9726-3.8027 31.7618-9.3787 1.9791-22.441 3.2324-27.1056-.3641-7.7242-5.9531-21.1147-3.4572-26.5901-2.0848.0668-.5493.132-1.0923.1986-1.6407l-5.6482.5956-2.9199 21.52c.0078.0039.0166.0078.0244.0117 2.1558 1.0587 3.9462 2.654 5.2434 4.58.7878-6.2644 1.5627-12.4972 2.3202-18.6739l.0167.0573c4.5161-1.4302 17.549-4.1287 23.5413.4901 3.4398 2.651 8.8359 3.5205 14.4402 3.5205 5.6221-.0005 11.4417-.8759 15.7056-1.7064-1.3252 10.7595-2.6973 21.6688-4.1108 32.6397-9.4243 2.1816-23.8533 3.8322-28.8085.0128-5.5804-4.3008-14.1136-4.1881-20.4895-3.2786l.317 6.0536c5.5746-.8287 12.4534-.9299 16.3589 2.0803 3.4398 2.651 8.8359 3.5205 14.4402 3.5205 6.3928-.0005 13.0385-1.1313 17.3604-2.0419-1.6704 12.8384-3.3955 25.7351-5.1689 38.5527-9.3809 1.9836-22.4753 3.2458-27.1466-.3552-4.184-3.2246-10.0265-3.9624-15.3768-3.7505-.5657 1.2391-1.3181 2.4003-2.2559 3.4415-1.4216 1.5787-3.1604 2.7635-5.0813 3.519 5.8552-1.1581 14.3798-1.8387 18.9005 1.6453 3.4397 2.6514 8.8358 3.5209 14.4401 3.5204 5.5925 0 11.3831-.8665 15.6399-1.6931-1.5696 11.2234-3.175 22.3668-4.8119 33.3333-7.0599 1.4194-21.4648 3.2013-27.0184-1.078-7.1509-5.5104-19.7642-3.684-26.4739-2.1633 1.5842-10.7057 3.1383-21.565 4.6582-32.492l.0237.0825c.2838-.0898.6016-.1847.9487-.2824-.1843.0171-.3657.0462-.5518.0559-.2393.0122-.4785.0186-.7139.0186-2.0073.0001-3.9091-.4521-5.6257-1.2419-1.3137 9.4552-2.6472 18.8727-4.0095 28.173-10.189 2.2923-26.0791 4.136-31.1267.246-.2869-.2211-.5872-.4141-.885-.6122-1.2598.3782-2.5865.588-3.9556.588-.625 0-1.2578-.0425-1.8809-.127-2.8707-.3895-5.4821-1.642-7.5632-3.5726-3.1079.135-6.007.6636-8.2341 1.2039 1.5818-10.8638 3.1317-21.8604 4.6448-32.9035.5369-.1436 1.2087-.3085 1.9652-.4734l.8568-6.3139c-.6902.1204-1.3484.2475-1.947.3773 1.7046-12.5676 3.3599-25.1684 4.9615-37.6754.6522-.1521 1.3627-.3017 2.1068-.4437l.8506-6.2685c-.7539.1212-1.4797.2494-2.1504.3822 1.438-11.3316 2.8293-22.5659 4.1682-33.6025.696-.1727 1.5747-.3694 2.5656-.5561l.85-6.264c-.9536.1426-1.8481.3021-2.6482.4659 1.1876-9.8752 2.3337-19.5765 3.4314-29.0278 1.6833-.4147 3.7893-.832 6.048-1.1133-.1454-1.6954-.1145-3.4306.1234-5.1855.043-.3163.116-.6217.1711-.9336-2.0828.2271-4.0046.5611-5.6105.8975 1.3383-11.6118 2.6019-22.8129 3.7832-33.4682 5.7456-1.3591 15.7423-2.648 20.7803 1.2351.0521.0402.1141.0714.1672.1107.9347-2.0877 1.9403-3.8774 3.0316-5.3883-6.6899-4.6188-17.0874-3.5258-23.2815-2.2722.9409-8.5499 1.8237-16.6954 2.6476-24.3961h54.0029c-.9031 8.4295-1.8771 17.4041-2.9177 26.8331-2.7581.6757-6.0333 1.3177-9.4121 1.7884.2775 2.2449-.2501 4.4538-1.3798 6.2944 3.9747-.4792 7.5762-1.1815 10.0881-1.739-1.1868 10.6726-2.4542 21.8693-3.7947 33.4583-.4331.1036-.8817.2057-1.337.3069.0217 1.1904-.0464 2.3972-.2113 3.6127-.1254.9244-.3224 1.8229-.5511 2.7082.4769-.0974.9366-.1935 1.3623-.2859-.644 5.5261-1.3055 11.1405-1.9803 16.8139l3.1838-2.8797c.5811-2.5063 1.2197-4.8813 1.9072-7.0889.6647-2.1312 1.9188-6.1498 4.125-10.0359-.2703.0588-.5458.1179-.7949.1755 1.3481-11.6112 2.6238-22.8459 3.8203-33.5704 5.5571-1.4208 16.3416-3.0531 21.6343 1.0276 3.4397 2.651 8.8369 3.5205 14.4402 3.5205 6.538-.0005 13.3425-1.1832 17.6531-2.1036-1.2047 10.7521-2.4865 21.9943-3.8384 33.5976zm4.5442-39.9237c-9.42 2.2009-23.9968 3.8974-28.9858.0538-6.9564-5.3612-18.5134-3.8702-24.7419-2.5181 1.175-10.6089 2.2683-20.6685 3.272-30.0458h54.0029c-1.0821 10.1076-2.2671 20.9979-3.5472 32.5101z" fill="#ffffff"/><path d="m425.8185 40.326c2.1908 0 3.973-1.7822 3.973-3.973s-1.7822-3.973-3.973-3.973-3.973 1.7823-3.973 3.973 1.7822 3.973 3.973 3.973z" fill="#ffffff"/><path d="m123.1217 198.7693 9.8431 1.1087c8.6028-1.2416 15.6323-8.1241 16.6506-17.165 1.2101-10.7443-6.519-20.4354-17.2633-21.6455s-20.4354 6.5189-21.6455 17.2632c-1.0181 9.0409 4.3043 17.3146 12.4151 20.4386z" fill="#ffffff"/><path d="m147.6318 306.9199c5.2324-.3931 9.1543-4.9536 8.7617-10.1855l-3.3027-43.9268c-.2783-3.7026-2.6885-6.9033-6.1699-8.1948-.6563-.2432-1.3291-.3862-2.0049-.4795l3.168-28.1309 22.7285-3.5347c2.5244-.3926 4.4873-2.4063 4.8184-4.9395 1.2412-9.5059 4.4834-19.8223 6.7715-21.6763 2.9443-.355 5.1699-2.9194 5.0508-5.9346-.126-3.1733-2.8115-5.6416-5.9717-5.519-9.3828.3701-13.1045 13.3423-14.3271 17.6045-1.0264 3.5771-1.7617 7.1133-2.2383 9.7437l-21.4629 3.3379-31.8096-3.5825c-.3223-.0366-.6406-.0405-.9551-.0259-13.7588-1.0703-16.7393 18.4902-18.7041 31.5034-.4297 2.8457 1.3115 5.5713 4.0742 6.3779l5.3799 1.5708-.7861 6.9736-8.583 76.2095c-.6123 5.436 3.2998 10.3423 8.7393 10.9551 5.4346.6118 10.3408-3.3008 10.9531-8.7373l4.5049-40c3.3955 1.3018 7.3848.5908 10.123-2.1465l9.3066-9.3066 1.75 23.2832c.376 4.9897 4.54 8.7886 9.4639 8.7881.2382.0001.4804-.0087.7216-.0273z" fill="#ffffff"/><path d="m288.0056 86.1067c1.592.2161 3.1248.5884 4.5868 1.0973 1.3807-5.0426 2.8561-8.6483 4.1779-9.7799 2.8682-.8345 4.6455-3.7573 4.0098-6.7241-.665-3.105-3.7227-5.0811-6.8271-4.418-5.8047 1.2441-9.8083 7.3076-12.9858 19.9436 1.2557-.2098 2.5371-.3352 3.8442-.3352 1.0614 0 2.1356.0727 3.1942.2163z" fill="#ffffff"/><ellipse cx="284.835" cy="109.47" rx="19.577" ry="19.577" transform="matrix(.19 -.982 .982 .19 123.172 368.275)" fill="#ffffff"/><path d="m297.6589 134.3411-10.4441-1.4172-11.8236-1.6044.1484-.1859c-3.626-1.5574-6.7451-3.9844-9.1364-6.9893l-5.679 7.1094c-.7463.9347-1.1527 2.0306-1.2385 3.1397-.0156.0833-.036.1646-.0476.2495l-6.7109 49.457-9.2354 68.0576c-.7354 5.4209 3.0635 10.4146 8.4883 11.1504 5.4199.7354 10.4131-3.0649 11.1484-8.4858l6.5439-48.2256c3.0537 1.668 6.9111 1.5996 9.9697-.5161l8.3916-5.8135 1.4121 26.9756c.2656 5.0708 4.46 9.0039 9.4795 9.0034.167 0 .3359-.0044.5049-.0132 5.2393-.2744 9.2646-4.7441 8.9902-9.9834l-2.3037-43.9902c-.1807-3.4404-2.209-6.5132-5.3008-8.0313-.8564-.4204-1.7588-.6895-2.6738-.8369l3.791-27.9346 17.0488-1.7979c2.5986-.2739 4.6855-2.2661 5.0801-4.8491 1.4482-9.4697 4.9229-19.7095 7.2627-21.5142 2.9521-.2881 5.2354-2.8013 5.1846-5.8188-.0527-3.1426-2.6162-5.6538-5.7471-5.6538-.0322 0-.0654.0005-.0986.001-9.3887.1572-13.4043 13.041-14.7236 17.2744-1.0908 3.501-1.8984 6.9683-2.4355 9.5742l-8.3252.8781-7.5127.7924c-.0028-.0006-.0047-.001-.0077-.0015z" fill="#ffffff"/></g></svg>